<?xml version="1.0" encoding="utf-8"?>
<!-- Generator: Adobe Illustrator 26.5.0, SVG Export Plug-In . SVG Version: 6.00 Build 0)  -->
<svg version="1.1" id="Layer_1" xmlns="http://www.w3.org/2000/svg" xmlns:xlink="http://www.w3.org/1999/xlink" x="0px" y="0px"
	 viewBox="0 0 1920 1080" style="enable-background:new 0 0 1920 1080;" xml:space="preserve">
<style type="text/css">
	.st0{fill:#FFFFFF;}
	.st1{fill:#FF4040;}
	.st2{fill:#081B3A;}
</style>
<g>
	<g>
		<g>
			<path class="st1" d="M507.87,715.68L492,729.31c-9.34-10.64-21.28-15.87-35.66-15.87c-13.07,0-24.09,4.48-32.86,13.26
				c-8.77,8.77-13.07,19.8-13.07,33.05c0,13.26,4.29,24.27,13.07,33.04c8.77,8.77,19.79,13.07,32.86,13.07
				c14.74,0,26.88-5.41,36.03-16.24l15.69,13.63c-12.69,14.94-31.36,23.71-51.71,23.71c-19.23,0-35.66-6.35-49.1-19.04
				c-13.26-12.88-19.98-28.94-19.98-48.17c0-19.23,6.72-35.29,19.98-48.17c13.44-12.88,29.87-19.23,49.1-19.23
				C477.07,692.34,494.24,700.18,507.87,715.68z"/>
			<path class="st1" d="M576.75,807.91c-13.26-12.88-19.98-28.94-19.98-47.98s6.72-35.1,19.98-47.98
				c13.26-13.07,29.5-19.61,48.73-19.61c19.23,0,35.47,6.53,48.73,19.61c13.44,12.88,20.16,28.93,20.16,47.98
				s-6.72,35.1-19.98,47.98c-13.26,12.88-29.69,19.42-48.91,19.42C606.24,827.32,590,820.79,576.75,807.91z M592.8,792.97
				c8.78,8.78,19.8,13.26,32.68,13.26s23.71-4.48,32.48-13.26c8.77-8.96,13.26-19.97,13.26-33.04c0-13.07-4.48-24.08-13.26-33.04
				s-19.6-13.44-32.48-13.44s-23.9,4.48-32.68,13.44c-8.77,8.96-13.07,19.98-13.07,33.04C579.73,773.18,584.03,784.19,592.8,792.97z
				"/>
			<path class="st1" d="M753.35,824.71V694.58h20.53l68.9,90.36v-90.36h22.59v130.13h-19.04l-70.38-92.04v92.04H753.35z"/>
			<path class="st1" d="M938.53,786.25c6.72,13.26,17.55,19.79,32.67,19.79c16.24,0,22.03-8.59,22.03-16.99
				c0-5.79-2.05-9.71-7.47-13.26c-5.42-3.73-9.34-5.41-19.04-8.96c-11.95-4.48-18.85-7.85-26.32-13.82
				c-7.47-6.16-11.02-14.56-11.02-25.58c0-10.46,3.93-18.86,11.58-25.39c7.85-6.53,17.36-9.71,28.75-9.71
				c17.74,0,31.18,7.09,40.14,21.09l-16.62,11.39c-5.04-7.65-12.69-11.57-23.15-11.57c-10.26,0-17.73,5.79-17.73,13.81
				c0,5.42,2.23,8.03,5.41,11.2c2.06,1.5,7.28,3.74,9.71,5.04l6.72,2.61l7.66,2.99c12.32,5.04,21.09,10.45,26.51,16.24
				c5.42,5.79,8.21,13.63,8.21,23.34c0,22.96-15.87,38.46-45.55,38.46c-24.08,0-41.82-11.2-50.03-29.69L938.53,786.25z"/>
			<path class="st1" d="M1073.13,694.58h23.33v77.85c0,22.4,11.01,33.23,29.5,33.23c18.11,0,29.31-10.83,29.31-33.23v-77.85h23.33
				v80.27c0,16.62-4.85,29.5-14.74,38.46c-9.9,8.96-22.41,13.44-37.9,13.44s-28.19-4.48-38.09-13.44
				c-9.89-8.96-14.74-21.84-14.74-38.46V694.58z"/>
			<path class="st1" d="M1243.75,824.71V694.58h23.34v109.03h51.71v21.1H1243.75z"/>
			<path class="st1" d="M1386.74,824.71V715.68h-35.28v-21.09h93.91v21.09h-35.29v109.03H1386.74z"/>
			<path class="st1" d="M1501.55,824.71V694.58h23.33v130.13H1501.55z"/>
			<path class="st1" d="M1591.9,824.71V694.58h20.53l68.9,90.36v-90.36h22.59v130.13h-19.04l-70.38-92.04v92.04H1591.9z"/>
			<path class="st1" d="M1880.52,711.95l-15.5,14.19c-8.78-8.41-19.61-12.7-32.86-12.7c-13.07,0-24.09,4.48-32.86,13.26
				c-8.77,8.77-13.07,19.8-13.07,33.05c0,13.26,4.29,24.27,13.07,33.04c8.77,8.77,19.79,13.07,32.86,13.07
				c12.32,0,22.77-3.73,31.17-11.2v-23.9h-36.22v-20.72h58.25v52.46c-12.51,15.12-31.74,24.46-53.21,24.46
				c-19.23,0-35.66-6.35-49.1-19.04c-13.26-12.88-19.98-28.94-19.98-48.17c0-19.23,6.72-35.29,19.98-48.17
				c13.44-12.88,29.87-19.23,49.1-19.23C1851.39,692.34,1867.45,698.88,1880.52,711.95z"/>
		</g>
		<g>
			<polygon class="st2" points="611.08,263.98 611.07,263.98 611.07,407.13 473.87,407.13 473.87,263.98 387.27,263.98 
				387.27,627.14 473.87,627.14 473.87,483.44 611.07,483.44 611.07,627.14 698.48,627.14 698.48,524.04 613.64,271.57 			"/>
			<polygon class="st2" points="1536.53,263.98 1467.84,514.49 1392.28,274.8 1333.84,274.8 1266.64,515.27 1195.29,263.98 
				1172.04,263.98 1098.94,263.98 1220.98,627.14 1311.92,627.14 1365.81,450.29 1422.33,627.14 1513.52,627.14 1634.76,263.98 			
				"/>
			<polygon class="st2" points="1073.81,263.98 1073.8,263.98 1005.12,514.49 929.56,274.8 871.12,274.8 803.92,515.27 
				732.56,263.98 698.48,263.98 636.22,263.98 758.26,627.14 849.2,627.14 903.09,450.29 959.61,627.14 1050.8,627.14 
				1123.09,410.62 1076.36,271.57 			"/>
			<path class="st2" d="M1769.82,263.98h-110.14l-122.32,363.16h92.02l19.76-63.87h125.29l19.76,63.87h91.19L1769.82,263.98z
				 M1671.06,499.15l42.49-132.88l41.13,132.88H1671.06z"/>
		</g>
	</g>
	<path class="st1" d="M280.64,628.27c-57.48-114.57-119.51-384.25-61.38-502.79c15.3-30.32,54.33-45.88,85.59-29.55
		c22.75,11,36.99,32.91,49.83,51.74c8.13,12.09,18.35,39.81,18.35,39.81c-10.19-9.45-63.15-83.49-96.82-42.3
		c-50.75,62.09-34.02,239.01-24.3,319.89c6.95,54.31,17.75,108.3,33.83,161.18L280.64,628.27L280.64,628.27z"/>
	<path class="st1" d="M585.83,1037.92c-109.56,42.27-283.62-144.45-388.79-417.04C91.88,348.29,95.43,93.05,204.99,50.78
		c27.07-10.45,58.1-6.86,91.04,8.51c-21.15-19.47-44.93-36.46-74.25-41.84c-60.21-4.72-96.06,15.06-126.97,48.24
		C54.9,114.24,40.77,179.97,36.48,240.7c-36.8,520.8,484.48,990.66,591.65,764.14C616.44,1020.24,602.36,1031.54,585.83,1037.92z"/>
</g>
</svg>
